# xmcd
#
# Track frame offsets:
#	150
#	26683
#	64136
#	93167
#	117505
#	141628
#	182739
#	220212
#	261331
#
# Disc length: 3980 seconds
#
# Revision: 1
# Processed by: cddbd v1.5.2PL0 Copyright (c) Steve Scherf et al.
# Submitted via: audiograbber 1.83.01
#
DISCID=8b0f8a09
DTITLE=Grateful Dead - 78-10-20 Winterland Arena, San Francisco CA
DYEAR=1900
DGENRE=
TTITLE0=Minglewood Blues
TTITLE1=They Love Each Other
TTITLE2=Cassidy
TTITLE3=Dire Wolf
TTITLE4=El Paso
TTITLE5=Tennessee Jed
TTITLE6=It's All Over Now
TTITLE7=Loser
TTITLE8=Lazy Lightning > Supplication
EXTD=
EXTT0=
EXTT1=
EXTT2=
EXTT3=
EXTT4=
EXTT5=
EXTT6=
EXTT7=
EXTT8=
PLAYORDER=
